<svg width="266" height="114" viewBox="0 0 266 114" fill="none" xmlns="http://www.w3.org/2000/svg">
<g clip-path="url(#clip0_57_6588)">
<path d="M266.001 106.672C265.901 106.342 265.79 106.007 265.673 105.671C262.783 96.652 256.188 100.821 256.188 100.821C252.885 95.8693 252.013 101.683 252.013 101.683C250.053 94.2348 242.744 99.4206 242.744 99.4206C237.513 90.2523 227.958 97.8286 227.958 97.8286C228.545 91.4875 223.377 92.8878 223.377 92.8878C222.531 86.339 216.745 89.3631 216.745 89.3631C210.134 73.1243 197.71 92.776 197.71 92.776C186.232 91.2532 184.785 96.9874 184.187 100.8C171.235 100.693 169.296 104.282 169.428 106.672H266.001Z" fill="#4D7A60"/>
</g>
<g clip-path="url(#clip1_57_6588)">
<path d="M28.2852 36.7545L66.8691 54.6343H201.721L248.31 34.5703L28.2852 36.7545Z" fill="#210B0C"/>
<path d="M112.01 42.8965H111.621V49.3521H112.01V42.8965Z" fill="#5E272A"/>
<path d="M67.0644 42.8965H66.6758V49.3521H67.0644V42.8965Z" fill="#5E272A"/>
<path d="M157.299 42.8965H156.91V49.3521H157.299V42.8965Z" fill="#5E272A"/>
<path d="M202.592 42.8965H202.203V49.3521H202.592V42.8965Z" fill="#5E272A"/>
<path d="M201.722 50.7812H112.492V101.876H201.722V50.7812Z" fill="#BDA296"/>
<path d="M112.489 50.7812H66.8672V91.6566H112.489V50.7812Z" fill="#BDA296"/>
<path d="M84.2001 58.7812H73.1328V84.2862H84.2001V58.7812Z" fill="#F7E5DF"/>
<path d="M84.3934 84.4801H72.9375V58.5879H84.3934V84.4801ZM73.3261 84.0928H84.0048V58.9752H73.3261V84.0928Z" fill="#5E272A"/>
<path d="M74.8222 58.7812H74.4336V84.2862H74.8222V58.7812Z" fill="#5E272A"/>
<path d="M75.8339 58.7812H75.4453V84.2862H75.8339V58.7812Z" fill="#5E272A"/>
<path d="M76.8378 58.7812H76.4492V84.2862H76.8378V58.7812Z" fill="#5E272A"/>
<path d="M77.8495 58.7812H77.4609V84.2862H77.8495V58.7812Z" fill="#5E272A"/>
<path d="M78.8613 58.7812H78.4727V84.2862H78.8613V58.7812Z" fill="#5E272A"/>
<path d="M79.8691 58.7812H79.4805V84.2862H79.8691V58.7812Z" fill="#5E272A"/>
<path d="M80.8808 58.7812H80.4922V84.2862H80.8808V58.7812Z" fill="#5E272A"/>
<path d="M81.8886 58.7812H81.5V84.2862H81.8886V58.7812Z" fill="#5E272A"/>
<path d="M82.8964 58.7812H82.5078V84.2862H82.8964V58.7812Z" fill="#5E272A"/>
<path d="M84.2001 61.418H73.1328V61.8052H84.2001V61.418Z" fill="#5E272A"/>
<path d="M84.2001 62.5684H73.1328V62.9556H84.2001V62.5684Z" fill="#5E272A"/>
<path d="M84.2001 63.7188H73.1328V64.106H84.2001V63.7188Z" fill="#5E272A"/>
<path d="M84.2001 64.8691H73.1328V65.2564H84.2001V64.8691Z" fill="#5E272A"/>
<path d="M84.2001 77.9355H73.1328V78.3228H84.2001V77.9355Z" fill="#5E272A"/>
<path d="M84.2001 79.0859H73.1328V79.4732H84.2001V79.0859Z" fill="#5E272A"/>
<path d="M84.2001 80.2363H73.1328V80.6236H84.2001V80.2363Z" fill="#5E272A"/>
<path d="M84.2001 81.3867H73.1328V81.774H84.2001V81.3867Z" fill="#5E272A"/>
<path d="M96.9696 58.7812H85.9023V84.2862H96.9696V58.7812Z" fill="#F7E5DF"/>
<path d="M97.1629 84.4801H85.707V58.5879H97.1629V84.4801ZM86.0956 84.0928H96.7743V58.9752H86.0956V84.0928Z" fill="#5E272A"/>
<path d="M87.5917 58.7812H87.2031V84.2862H87.5917V58.7812Z" fill="#5E272A"/>
<path d="M88.5995 58.7812H88.2109V84.2862H88.5995V58.7812Z" fill="#5E272A"/>
<path d="M89.6073 58.7812H89.2188V84.2862H89.6073V58.7812Z" fill="#5E272A"/>
<path d="M90.6191 58.7812H90.2305V84.2862H90.6191V58.7812Z" fill="#5E272A"/>
<path d="M91.6308 58.7812H91.2422V84.2862H91.6308V58.7812Z" fill="#5E272A"/>
<path d="M92.6386 58.7812H92.25V84.2862H92.6386V58.7812Z" fill="#5E272A"/>
<path d="M93.6503 58.7812H93.2617V84.2862H93.6503V58.7812Z" fill="#5E272A"/>
<path d="M94.6581 58.7812H94.2695V84.2862H94.6581V58.7812Z" fill="#5E272A"/>
<path d="M95.6659 58.7812H95.2773V84.2862H95.6659V58.7812Z" fill="#5E272A"/>
<path d="M96.9696 61.418H85.9023V61.8052H96.9696V61.418Z" fill="#5E272A"/>
<path d="M96.9696 62.5684H85.9023V62.9556H96.9696V62.5684Z" fill="#5E272A"/>
<path d="M96.9696 63.7188H85.9023V64.106H96.9696V63.7188Z" fill="#5E272A"/>
<path d="M96.9696 64.8691H85.9023V65.2564H96.9696V64.8691Z" fill="#5E272A"/>
<path d="M96.9696 77.9355H85.9023V78.3228H96.9696V77.9355Z" fill="#5E272A"/>
<path d="M96.9696 79.0859H85.9023V79.4732H96.9696V79.0859Z" fill="#5E272A"/>
<path d="M96.9696 80.2363H85.9023V80.6236H96.9696V80.2363Z" fill="#5E272A"/>
<path d="M96.9696 81.3867H85.9023V81.774H96.9696V81.3867Z" fill="#5E272A"/>
<path d="M109.739 58.7812H98.6719V84.2862H109.739V58.7812Z" fill="#F7E5DF"/>
<path d="M109.932 84.4801H98.4766V58.5879H109.932V84.4801ZM98.8652 84.0928H109.544V58.9752H98.8652V84.0928Z" fill="#5E272A"/>
<path d="M100.361 58.7812H99.9727V84.2862H100.361V58.7812Z" fill="#5E272A"/>
<path d="M101.369 58.7812H100.98V84.2862H101.369V58.7812Z" fill="#5E272A"/>
<path d="M102.377 58.7812H101.988V84.2862H102.377V58.7812Z" fill="#5E272A"/>
<path d="M103.389 58.7812H103V84.2862H103.389V58.7812Z" fill="#5E272A"/>
<path d="M104.4 58.7812H104.012V84.2862H104.4V58.7812Z" fill="#5E272A"/>
<path d="M105.408 58.7812H105.02V84.2862H105.408V58.7812Z" fill="#5E272A"/>
<path d="M106.416 58.7812H106.027V84.2862H106.416V58.7812Z" fill="#5E272A"/>
<path d="M107.428 58.7812H107.039V84.2862H107.428V58.7812Z" fill="#5E272A"/>
<path d="M108.435 58.7812H108.047V84.2862H108.435V58.7812Z" fill="#5E272A"/>
<path d="M109.739 61.418H98.6719V61.8052H109.739V61.418Z" fill="#5E272A"/>
<path d="M109.739 62.5684H98.6719V62.9556H109.739V62.5684Z" fill="#5E272A"/>
<path d="M109.739 63.7188H98.6719V64.106H109.739V63.7188Z" fill="#5E272A"/>
<path d="M109.739 64.8691H98.6719V65.2564H109.739V64.8691Z" fill="#5E272A"/>
<path d="M109.739 77.9355H98.6719V78.3228H109.739V77.9355Z" fill="#5E272A"/>
<path d="M109.739 79.0859H98.6719V79.4732H109.739V79.0859Z" fill="#5E272A"/>
<path d="M109.739 80.2363H98.6719V80.6236H109.739V80.2363Z" fill="#5E272A"/>
<path d="M109.739 81.3867H98.6719V81.774H109.739V81.3867Z" fill="#5E272A"/>
<path d="M177.013 64.084H165.945V89.5889H177.013V64.084Z" fill="#F7E5DF"/>
<path d="M177.206 89.7828H165.75V63.8906H177.206V89.7828ZM166.139 89.3956H176.817V64.2779H166.139V89.3956Z" fill="#5E272A"/>
<path d="M167.631 64.084H167.242V89.5889H167.631V64.084Z" fill="#5E272A"/>
<path d="M168.643 64.084H168.254V89.5889H168.643V64.084Z" fill="#5E272A"/>
<path d="M169.65 64.084H169.262V89.5889H169.65V64.084Z" fill="#5E272A"/>
<path d="M170.662 64.084H170.273V89.5889H170.662V64.084Z" fill="#5E272A"/>
<path d="M171.674 64.084H171.285V89.5889H171.674V64.084Z" fill="#5E272A"/>
<path d="M172.682 64.084H172.293V89.5889H172.682V64.084Z" fill="#5E272A"/>
<path d="M173.689 64.084H173.301V89.5889H173.689V64.084Z" fill="#5E272A"/>
<path d="M174.701 64.084H174.312V89.5889H174.701V64.084Z" fill="#5E272A"/>
<path d="M175.709 64.084H175.32V89.5889H175.709V64.084Z" fill="#5E272A"/>
<path d="M177.013 66.7207H165.945V67.108H177.013V66.7207Z" fill="#5E272A"/>
<path d="M177.013 67.8711H165.945V68.2584H177.013V67.8711Z" fill="#5E272A"/>
<path d="M177.013 69.0215H165.945V69.4087H177.013V69.0215Z" fill="#5E272A"/>
<path d="M177.013 70.1719H165.945V70.5591H177.013V70.1719Z" fill="#5E272A"/>
<path d="M177.013 83.2383H165.945V83.6255H177.013V83.2383Z" fill="#5E272A"/>
<path d="M177.013 84.3887H165.945V84.7759H177.013V84.3887Z" fill="#5E272A"/>
<path d="M177.013 85.5391H165.945V85.9263H177.013V85.5391Z" fill="#5E272A"/>
<path d="M177.013 86.6895H165.945V87.0767H177.013V86.6895Z" fill="#5E272A"/>
<path d="M189.606 64.084H178.539V89.5889H189.606V64.084Z" fill="#F7E5DF"/>
<path d="M189.8 89.7828H178.344V63.8906H189.8V89.7828ZM178.732 89.3956H189.411V64.2779H178.732V89.3956Z" fill="#5E272A"/>
<path d="M180.225 64.084H179.836V89.5889H180.225V64.084Z" fill="#5E272A"/>
<path d="M181.236 64.084H180.848V89.5889H181.236V64.084Z" fill="#5E272A"/>
<path d="M182.244 64.084H181.855V89.5889H182.244V64.084Z" fill="#5E272A"/>
<path d="M183.256 64.084H182.867V89.5889H183.256V64.084Z" fill="#5E272A"/>
<path d="M184.268 64.084H183.879V89.5889H184.268V64.084Z" fill="#5E272A"/>
<path d="M185.275 64.084H184.887V89.5889H185.275V64.084Z" fill="#5E272A"/>
<path d="M186.283 64.084H185.895V89.5889H186.283V64.084Z" fill="#5E272A"/>
<path d="M187.295 64.084H186.906V89.5889H187.295V64.084Z" fill="#5E272A"/>
<path d="M188.303 64.084H187.914V89.5889H188.303V64.084Z" fill="#5E272A"/>
<path d="M189.606 66.7207H178.539V67.108H189.606V66.7207Z" fill="#5E272A"/>
<path d="M189.606 67.8711H178.539V68.2584H189.606V67.8711Z" fill="#5E272A"/>
<path d="M189.606 69.0215H178.539V69.4087H189.606V69.0215Z" fill="#5E272A"/>
<path d="M189.606 70.1719H178.539V70.5591H189.606V70.1719Z" fill="#5E272A"/>
<path d="M189.606 83.2383H178.539V83.6255H189.606V83.2383Z" fill="#5E272A"/>
<path d="M189.606 84.3887H178.539V84.7759H189.606V84.3887Z" fill="#5E272A"/>
<path d="M189.606 85.5391H178.539V85.9263H189.606V85.5391Z" fill="#5E272A"/>
<path d="M189.606 86.6895H178.539V87.0767H189.606V86.6895Z" fill="#5E272A"/>
<path d="M201.722 60.25H112.492V64.0839H201.722V60.25Z" fill="#5E272A"/>
<path d="M201.722 89.7363H112.492V97.1059H201.722V89.7363Z" fill="#5E272A"/>
<path d="M113.652 84.2871H67.875V91.6567H113.652V84.2871Z" fill="#5E272A"/>
<path d="M113.652 50.6777H67.875V58.7831H113.652V50.6777Z" fill="#5E272A"/>
<path d="M111.172 101.873H208.897C209.69 101.873 210.331 102.516 210.331 103.302V106.997H109.738V103.302C109.738 102.512 110.383 101.873 111.172 101.873Z" fill="#8F7C71"/>
<path d="M65.8915 101.873H71.0599C72.2063 101.873 73.135 102.799 73.135 103.941V107H63.8164V103.941C63.8164 102.799 64.7452 101.873 65.8915 101.873Z" fill="#8F7C71"/>
<path d="M153.827 101.873H157.34V50.7779H153.827V101.873Z" fill="#5E272A"/>
<path d="M112.491 101.873H116.004V50.7779H112.491V101.873Z" fill="#5E272A"/>
<path d="M66.8699 101.873H70.3828V50.7779H66.8699V101.873Z" fill="#5E272A"/>
<path d="M66.8699 105.799H70.3828V91.6522H66.8699V105.799Z" fill="#8F7C71"/>
<path d="M198.206 101.873H201.719V50.7779H198.206V101.873Z" fill="#5E272A"/>
<path d="M148.008 64.084H121.824V89.7361H148.008V64.084Z" fill="#5E272A"/>
<path d="M138.817 48.1324L135.44 48.1247C111.036 48.0317 77.2743 46.8893 50.4532 42.1492C33.6657 39.1828 27.5026 36.1932 27.2461 36.0693L29.3134 31.9023C29.5505 32.0185 53.9506 43.3924 137.775 43.4853H138.444H138.813C162.976 43.4582 197.507 42.4281 224.802 37.6648C241.158 34.8107 247.216 31.9295 247.275 31.9023L249.342 36.0693C249.089 36.1932 242.922 39.1828 226.135 42.1492C199.31 46.8932 165.552 48.0356 141.148 48.1247L138.817 48.1324Z" fill="#5B1D21"/>
<path d="M145.201 64.084H124.625V89.7361H145.201V64.084Z" fill="#210B0C"/>
<path d="M138.818 44.0347C224.601 43.9418 248.306 32.3627 248.306 32.3627L235.082 25.4036C235.082 25.4036 215.598 30.0508 204.309 25.4269C196.486 22.2242 194.473 13.6387 194.473 13.6387C179.512 20.1137 143.062 20.9463 138.294 21.0276C133.525 20.9463 97.0749 20.1137 82.1139 13.6387C82.1139 13.6387 80.1009 22.2242 72.2784 25.4269C60.9896 30.0508 41.5053 25.4036 41.5053 25.4036L28.2852 32.3627C28.2852 32.3627 51.9936 43.9418 137.773 44.0347C137.948 44.0347 138.119 44.0347 138.294 44.0347C138.468 44.0347 138.639 44.0347 138.814 44.0347H138.818Z" fill="#204D42"/>
<mask id="mask0_57_6588" style="mask-type:luminance" maskUnits="userSpaceOnUse" x="28" y="13" width="221" height="32">
<path d="M138.818 44.0347C224.601 43.9418 248.306 32.3627 248.306 32.3627L235.082 25.4036C235.082 25.4036 215.598 30.0508 204.309 25.4269C196.486 22.2242 194.473 13.6387 194.473 13.6387C179.512 20.1137 143.062 20.9463 138.294 21.0276C133.525 20.9463 97.0749 20.1137 82.1139 13.6387C82.1139 13.6387 80.1009 22.2242 72.2784 25.4269C60.9896 30.0508 41.5053 25.4036 41.5053 25.4036L28.2852 32.3627C28.2852 32.3627 51.9936 43.9418 137.773 44.0347C137.948 44.0347 138.119 44.0347 138.294 44.0347C138.468 44.0347 138.639 44.0347 138.814 44.0347H138.818Z" fill="white"/>
</mask>
<g mask="url(#mask0_57_6588)">
<path d="M26.4977 36.003L26.0547 33.327C46.118 30.0275 71.3303 10.9356 73.0751 9.2665C72.8925 9.44077 72.6166 9.88612 72.7332 10.4593L74.0622 10.1882L74.544 8.91797L75.4184 10.3237C75.3562 10.9433 75.3368 11.1525 70.4016 14.723C67.8835 16.547 63.842 19.3508 58.9107 22.3559C50.3887 27.5491 37.8448 34.1325 26.4977 35.9991V36.003Z" fill="#336150"/>
<path d="M35.5166 37.6148L34.957 34.9621C53.3883 31.0895 76.6148 11.5677 78.2236 9.87537C78.0526 10.0574 77.7962 10.5105 77.9322 11.072L79.2534 10.7506L79.7003 9.46875L80.6096 10.8358C80.5708 11.4554 80.5591 11.6413 76.0008 15.3125C73.6809 17.183 69.9581 20.0642 65.4193 23.17C57.5618 28.5413 45.9971 35.4113 35.5166 37.611V37.6148Z" fill="#336150"/>
<path d="M44.5589 39.0849L43.8672 36.4632C60.678 32.0716 81.8955 12.151 83.3683 10.4393C83.2089 10.6252 82.9758 11.0899 83.1351 11.6359L84.4408 11.2642L84.8527 9.9707L85.8048 11.299C85.7892 11.8993 85.7853 12.0813 81.6118 15.8454C79.49 17.7585 76.0898 20.7094 71.9396 23.9082C64.7505 29.446 54.1651 36.5755 44.5589 39.0888V39.0849Z" fill="#336150"/>
<path d="M53.6246 40.4094L52.793 37.8302C67.995 32.9623 87.1917 12.6893 88.5246 10.9582C88.377 11.1518 88.171 11.6204 88.3498 12.151L89.6399 11.725L90.0168 10.4199L91.0039 11.7018C91.0117 12.2981 91.0156 12.4569 87.2306 16.3063C85.3109 18.2581 82.2332 21.271 78.4755 24.551C71.9587 30.2399 62.3603 37.6133 53.6323 40.4055L53.6246 40.4094Z" fill="#336150"/>
<path d="M62.7097 41.5941L61.7188 39.0691C75.3197 33.7753 92.4841 13.1847 93.6771 11.4381C93.51 11.686 93.3779 12.1429 93.5605 12.627L94.8313 12.1468L95.1693 10.834L96.1913 12.0655C96.2263 12.6541 96.238 12.7935 92.8377 16.7165C91.1201 18.7031 88.3611 21.7741 84.9997 25.1278C79.1591 30.956 70.5516 38.5425 62.7097 41.5941Z" fill="#336150"/>
<path d="M71.8181 42.633L70.6523 40.1817C82.6678 34.5044 97.7882 13.6389 98.8374 11.873C98.6859 12.1247 98.5848 12.5855 98.7869 13.0502L100.034 12.5119L100.334 11.1875L101.391 12.3609C101.457 12.9379 101.468 13.058 98.4605 17.0506C96.9411 19.0644 94.5123 22.1857 91.5434 25.6091C86.3828 31.5613 78.7741 39.3452 71.822 42.6292L71.8181 42.633Z" fill="#336150"/>
<path d="M80.9499 43.5187L79.5859 41.1719C90.0354 35.1423 103.1 14.0443 104.002 12.2707C103.869 12.5263 103.796 12.9871 104.013 13.4286L105.494 11.5039L106.578 12.6115C106.671 13.173 106.691 13.2737 104.075 17.3322C102.762 19.373 100.652 22.537 98.0832 26.0184C91.5703 34.8325 85.8074 40.7188 80.9538 43.5187H80.9499Z" fill="#336150"/>
<path d="M90.1011 44.2506L88.5156 42.0471C97.2436 35.8161 108.443 14.3348 109.17 12.627C109.061 12.8864 109.014 13.3395 109.247 13.7655L110.44 13.111L111.765 12.8012C111.894 13.355 111.913 13.4247 109.694 17.5452C108.583 19.6093 106.799 22.808 104.627 26.336C99.1127 35.2817 94.228 41.3074 90.105 44.2506H90.1011Z" fill="#336150"/>
<path d="M99.2717 44.8206L97.4414 42.8146C104.654 36.2854 113.759 14.6569 114.345 12.9452C114.252 13.2202 114.241 13.6539 114.485 14.0528L115.643 13.3403L116.941 12.9375C117.112 13.4874 117.124 13.5223 115.301 17.6931C114.392 19.7726 112.939 23.0024 111.159 26.5691C106.647 35.6193 102.649 41.7574 99.2678 44.8168L99.2717 44.8206Z" fill="#336150"/>
<path d="M108.458 45.2124L106.367 43.4774C111.967 36.774 119.098 14.8512 119.525 13.2131L120.808 13.5461L120.846 13.519L122.105 13.0078C122.253 13.3718 121.853 14.9622 120.905 17.7789C120.201 19.8701 119.07 23.1192 117.691 26.7168C114.19 35.8407 111.081 42.0639 108.454 45.2124H108.458Z" fill="#336150"/>
<path d="M117.652 45.4216L115.301 44.0585C119.346 37.1265 124.46 14.8784 124.72 13.4417L126.03 13.6779L126.061 13.6547L127.266 13.0234C127.444 13.3591 127.193 14.9533 126.512 17.8061C126.011 19.9051 125.206 23.1697 124.223 26.7867C121.732 35.9531 119.521 42.2229 117.652 45.4255V45.4216Z" fill="#336150"/>
<path d="M126.826 45.4367L124.254 44.5537C126.698 37.463 129.78 14.9206 129.916 13.6194L131.249 13.7549L131.272 13.7356L132.395 12.9727C132.605 13.2825 132.505 14.878 132.096 17.7592C131.797 19.862 131.319 23.1344 130.732 26.7591C129.251 35.9333 127.934 42.2147 126.826 45.4289V45.4367Z" fill="#336150"/>
<path d="M135.712 45.2654L133.008 44.9595C133.867 37.3692 134.877 13.9438 134.885 13.7463L136.233 13.785L136.245 13.7734L137.259 12.8711C137.628 13.2855 137.624 13.3745 137.558 14.8694C137.531 15.5354 137.484 16.492 137.43 17.6654C137.333 19.7682 137.177 23.0367 136.983 26.6653C136.649 32.9544 136.159 41.2883 135.709 45.2615L135.712 45.2654Z" fill="#336150"/>
<path d="M140.286 45.2654C139.835 41.2922 139.346 32.9583 139.012 26.6692C138.821 23.0445 138.662 19.7721 138.565 17.6693C138.51 16.4959 138.468 15.5355 138.437 14.8733C138.37 13.3784 138.367 13.2855 138.74 12.875L139.754 13.7773L141.114 13.7463C141.118 13.9438 142.132 37.4041 142.991 44.9595L140.286 45.2654Z" fill="#336150"/>
<path d="M149.175 45.4367C148.068 42.2225 146.754 35.9411 145.27 26.7669C144.683 23.1422 144.205 19.8737 143.906 17.767C143.497 14.8832 143.397 13.2877 143.607 12.9805L144.73 13.7434L146.086 13.6272C146.218 14.9284 149.3 37.4708 151.748 44.5615L149.175 45.4445V45.4367Z" fill="#336150"/>
<path d="M158.349 45.4216C156.48 42.219 154.269 35.9492 151.778 26.7828C150.795 23.1658 149.991 19.905 149.489 17.8022C148.808 14.952 148.557 13.3577 148.735 13.0195L149.936 13.6546L151.277 13.4416C151.537 14.8784 156.647 37.1226 160.696 44.0584L158.345 45.4216H158.349Z" fill="#336150"/>
<path d="M167.545 45.2124C164.918 42.0639 161.809 35.8407 158.308 26.7168C156.928 23.123 155.797 19.8701 155.094 17.7789C154.146 14.9622 153.745 13.3718 153.893 13.0078L155.152 13.519L156.271 14.2935L155.156 13.519L156.481 13.2131C156.909 14.8512 164.039 36.7701 169.639 43.4774L167.548 45.2124H167.545Z" fill="#336150"/>
<path d="M176.73 44.8207C173.349 41.7613 169.351 35.6194 164.839 26.573C163.063 23.0063 161.606 19.7766 160.697 17.697C158.874 13.5262 158.886 13.4913 159.057 12.9414L160.355 13.3442L161.513 14.0567C161.761 13.6578 161.75 13.2202 161.657 12.9492C162.243 14.6608 171.344 36.2855 178.561 42.8185L176.73 44.8245V44.8207Z" fill="#336150"/>
<path d="M185.9 44.2506C181.777 41.3074 176.893 35.2817 171.378 26.336C169.202 22.808 167.422 19.6093 166.311 17.5452C164.092 13.4286 164.108 13.355 164.24 12.8012L165.565 13.111L166.758 13.7655C166.991 13.3434 166.944 12.8864 166.836 12.627C167.562 14.3348 178.762 35.8122 187.49 42.0471L185.904 44.2506H185.9Z" fill="#336150"/>
<path d="M195.051 43.5187C190.198 40.7188 184.435 34.8286 177.922 26.0184C175.349 22.537 173.243 19.373 171.93 17.3322C169.314 13.2737 169.334 13.173 169.427 12.6115L170.511 11.5039L171.992 13.4286C172.209 12.9832 172.136 12.5263 172.003 12.2707C172.909 14.0443 185.974 35.1423 196.419 41.1719L195.055 43.5187H195.051Z" fill="#336150"/>
<path d="M204.179 42.6331C197.231 39.3491 189.622 31.5652 184.457 25.6169C181.488 22.1935 179.056 19.0722 177.54 17.0584C174.533 13.0658 174.544 12.9457 174.61 12.3687L175.663 11.1953L176.262 13.8403L175.963 12.5197L177.21 13.058C177.412 12.5933 177.307 12.1364 177.156 11.8808C178.205 13.6428 193.321 34.5084 205.341 40.1895L204.175 42.6408L204.179 42.6331Z" fill="#336150"/>
<path d="M213.289 41.5941C205.447 38.5425 196.84 30.9522 190.999 25.1278C187.637 21.7702 184.878 18.6992 183.161 16.7165C179.761 12.7935 179.772 12.6541 179.807 12.0655L180.829 10.834L181.502 13.4596L181.163 12.1468L182.434 12.627C182.617 12.1468 182.485 11.686 182.318 11.4381C183.507 13.1885 200.675 33.7792 214.276 39.0691L213.285 41.5941H213.289Z" fill="#336150"/>
<path d="M222.377 40.4094C213.649 37.6134 204.05 30.2438 197.534 24.555C193.776 21.2749 190.698 18.2581 188.778 16.3102C184.99 12.4647 184.993 12.302 185.005 11.7057L185.992 10.4238L186.365 11.725L187.655 12.151C187.83 11.6205 187.628 11.1519 187.481 10.9582C188.813 12.6893 208.01 32.9624 223.212 37.8302L222.381 40.4094H222.377Z" fill="#336150"/>
<path d="M231.441 39.0849C221.835 36.5754 211.25 29.446 204.061 23.9043C199.91 20.7055 196.51 17.7546 194.388 15.8415C190.215 12.0812 190.211 11.8992 190.195 11.2951L191.143 9.9668L191.555 11.2602L192.861 11.632C193.017 11.086 192.787 10.6213 192.628 10.4354C194.101 12.1471 215.318 32.0677 232.129 36.4593L231.437 39.081L231.441 39.0849Z" fill="#336150"/>
<path d="M240.484 37.6149C230.003 35.4113 218.438 28.5452 210.581 23.1739C206.038 20.0681 202.319 17.1869 199.999 15.3164C195.445 11.6452 195.433 11.4593 195.391 10.8397L196.304 9.47266L197.198 12.0324L196.751 10.7506L198.072 11.072C198.208 10.5105 197.955 10.0574 197.781 9.87541C199.389 11.5677 222.612 31.0895 241.047 34.9621L240.488 37.6149H240.484Z" fill="#336150"/>
<path d="M249.499 36.003C238.152 34.1364 225.608 27.553 217.086 22.3598C212.154 19.3547 208.113 16.5509 205.595 14.7269C200.66 11.1564 200.64 10.9472 200.578 10.3276L201.452 8.92188L201.934 10.1882L203.267 10.4593C203.384 9.88615 203.108 9.4408 202.925 9.26654C204.67 10.9356 229.878 30.0237 249.946 33.327L249.503 36.003H249.499Z" fill="#336150"/>
</g>
<path d="M30.4722 34.6636C30.3207 35.8409 29.1976 36.6541 27.9619 36.476C26.7261 36.2978 25.8596 35.198 26.0189 34.0207C26.1821 32.8473 27.3051 32.0418 28.5292 32.22C29.7533 32.3981 30.6238 33.4902 30.4683 34.6675L30.4722 34.6636Z" fill="#4D7A60"/>
<path d="M34.8209 35.6473C34.9724 34.47 36.0838 33.6529 37.3118 33.8155C38.5359 33.9782 39.418 35.0586 39.2781 36.2359C39.1382 37.4132 38.0229 38.2419 36.7872 38.0754C35.5515 37.9128 34.6732 36.8207 34.8209 35.6434V35.6473Z" fill="#4D7A60"/>
<path d="M43.6387 37.1422C43.7747 35.9649 44.8822 35.1323 46.1063 35.2833C47.3304 35.4305 48.2242 36.5032 48.096 37.6805C47.9677 38.8577 46.8641 39.6981 45.6284 39.5509C44.3926 39.3999 43.5027 38.3233 43.6387 37.1422Z" fill="#4D7A60"/>
<path d="M52.4723 38.4971C52.5967 37.3198 53.6925 36.4756 54.9205 36.6073C56.1485 36.7428 57.05 37.8 56.9335 38.9812C56.8208 40.1623 55.7249 41.0143 54.4853 40.8788C53.2495 40.7432 52.3441 39.6744 52.4685 38.4971H52.4723Z" fill="#4D7A60"/>
<path d="M61.3174 39.7211C61.4301 38.54 62.5143 37.6842 63.7423 37.8042C64.9703 37.9243 65.8835 38.9737 65.7824 40.1549C65.6814 41.336 64.5972 42.1996 63.3576 42.0796C62.1179 41.9595 61.2086 40.9023 61.3174 39.7211Z" fill="#4D7A60"/>
<path d="M70.1789 40.8061C70.2761 39.625 71.3525 38.7575 72.5804 38.8621C73.8084 38.9666 74.7333 40.0045 74.6439 41.1895C74.5545 42.3706 73.4781 43.2497 72.2424 43.1413C71.0027 43.0367 70.0818 41.9872 70.1789 40.8061Z" fill="#4D7A60"/>
<path d="M79.0523 41.7591C79.1378 40.578 80.2026 39.695 81.4344 39.788C82.6624 39.877 83.5989 40.9071 83.5212 42.0883C83.4474 43.2694 82.3787 44.1601 81.1391 44.0711C79.8995 43.9781 78.9668 42.9441 79.0523 41.763V41.7591Z" fill="#4D7A60"/>
<path d="M87.9298 42.5791C88.0037 41.398 89.0607 40.5034 90.2886 40.5808C91.5166 40.6583 92.4648 41.6729 92.3987 42.8579C92.3365 44.043 91.2796 44.9414 90.0399 44.8678C88.8003 44.7904 87.856 43.7641 87.9298 42.583V42.5791Z" fill="#4D7A60"/>
<path d="M96.8193 43.2608C96.8815 42.0758 97.9268 41.1735 99.1548 41.2354C100.383 41.2974 101.339 42.3043 101.288 43.4854C101.238 44.6704 100.192 45.5844 98.9527 45.5224C97.713 45.4604 96.7571 44.4458 96.8193 43.2608Z" fill="#4D7A60"/>
<path d="M105.716 43.8103C105.763 42.6253 106.801 41.7075 108.029 41.7578C109.257 41.8043 110.224 42.7996 110.189 43.9846C110.15 45.1696 109.117 46.0951 107.877 46.0448C106.637 45.9983 105.67 44.9953 105.716 43.8103Z" fill="#4D7A60"/>
<path d="M114.614 44.2212C114.649 43.0361 115.675 42.1067 116.903 42.1416C118.131 42.1764 119.11 43.1562 119.087 44.3412C119.064 45.5262 118.038 46.4634 116.798 46.4285C115.558 46.3937 114.579 45.4023 114.614 44.2173V44.2212Z" fill="#4D7A60"/>
<path d="M123.524 44.4996C123.547 43.3146 124.561 42.3735 125.789 42.3929C127.021 42.4122 128.008 43.3843 127.996 44.5693C127.985 45.7543 126.971 46.7031 125.731 46.6837C124.491 46.6644 123.504 45.6846 123.524 44.4996Z" fill="#4D7A60"/>
<path d="M132.188 44.6437C132.199 43.4586 133.202 42.506 134.434 42.5137C135.666 42.5176 136.66 43.478 136.66 44.663C136.66 45.848 135.654 46.8084 134.414 46.8046C133.175 46.8007 132.176 45.8287 132.188 44.6437Z" fill="#4D7A60"/>
<path d="M139.34 44.663C139.34 43.478 140.339 42.5176 141.567 42.5137C142.798 42.5098 143.801 43.4586 143.813 44.6436C143.824 45.8286 142.826 46.7968 141.586 46.8045C140.346 46.8084 139.34 45.848 139.34 44.663Z" fill="#4D7A60"/>
<path d="M148.004 44.5693C147.992 43.3843 148.979 42.4122 150.211 42.3929C151.443 42.3735 152.457 43.3146 152.477 44.4996C152.5 45.6846 151.513 46.6644 150.27 46.6837C149.03 46.7031 148.016 45.7543 148.004 44.5693Z" fill="#4D7A60"/>
<path d="M156.911 44.3451C156.887 43.1601 157.863 42.1765 159.094 42.1455C160.326 42.1106 161.348 43.04 161.383 44.2251C161.418 45.4101 160.443 46.4015 159.199 46.4363C157.96 46.4712 156.934 45.534 156.911 44.349V44.3451Z" fill="#4D7A60"/>
<path d="M165.814 43.9804C165.775 42.7954 166.742 41.8001 167.974 41.7536C169.202 41.7072 170.24 42.6211 170.286 43.8061C170.333 44.9911 169.369 45.9941 168.126 46.0406C166.886 46.0871 165.849 45.1615 165.814 43.9804Z" fill="#4D7A60"/>
<path d="M174.709 43.4854C174.658 42.3004 175.614 41.2974 176.842 41.2354C178.07 41.1735 179.116 42.0796 179.178 43.2608C179.24 44.4458 178.284 45.4604 177.044 45.5224C175.805 45.5844 174.759 44.6704 174.709 43.4854Z" fill="#4D7A60"/>
<path d="M183.601 42.854C183.538 41.669 184.483 40.6544 185.711 40.5769C186.939 40.4995 187.996 41.3941 188.069 42.5752C188.143 43.7563 187.199 44.7826 185.959 44.86C184.72 44.9375 183.663 44.0352 183.601 42.8502V42.854Z" fill="#4D7A60"/>
<path d="M192.481 42.0878C192.403 40.9066 193.34 39.8765 194.568 39.7875C195.796 39.6984 196.861 40.5775 196.95 41.7586C197.035 42.9398 196.103 43.9776 194.863 44.0667C193.624 44.1596 192.559 43.2689 192.481 42.0839V42.0878Z" fill="#4D7A60"/>
<path d="M201.354 41.1895C201.264 40.0083 202.189 38.9666 203.417 38.8621C204.645 38.7575 205.721 39.625 205.819 40.8061C205.916 41.9872 204.995 43.0367 203.755 43.1413C202.516 43.2458 201.443 42.3706 201.354 41.1895Z" fill="#4D7A60"/>
<path d="M210.215 40.1549C210.114 38.9737 211.027 37.9243 212.255 37.8042C213.483 37.6842 214.567 38.54 214.68 39.7211C214.792 40.9023 213.879 41.9595 212.64 42.0796C211.4 42.1996 210.316 41.336 210.215 40.1549Z" fill="#4D7A60"/>
<path d="M219.068 38.9812C218.955 37.8001 219.857 36.739 221.081 36.6073C222.309 36.4757 223.405 37.316 223.529 38.4972C223.654 39.6744 222.752 40.7471 221.512 40.8788C220.277 41.0144 219.181 40.1624 219.064 38.9812H219.068Z" fill="#4D7A60"/>
<path d="M227.903 37.6797C227.775 36.5024 228.668 35.4297 229.892 35.2825C231.12 35.1354 232.224 35.9641 232.36 37.1414C232.496 38.3187 231.606 39.3991 230.37 39.5502C229.135 39.7012 228.031 38.8608 227.903 37.6797Z" fill="#4D7A60"/>
<path d="M236.726 36.2398C236.586 35.0626 237.468 33.9821 238.692 33.8194C239.916 33.6568 241.031 34.4739 241.183 35.6512C241.334 36.8285 240.452 37.9167 239.216 38.0832C237.981 38.2458 236.865 37.421 236.726 36.2437V36.2398Z" fill="#4D7A60"/>
<path d="M245.526 34.6636C245.677 35.8409 246.8 36.6541 248.036 36.476C249.272 36.2978 250.138 35.198 249.975 34.0207C249.812 32.8473 248.689 32.0418 247.465 32.22C246.241 32.3981 245.37 33.4902 245.526 34.6675V34.6636Z" fill="#4D7A60"/>
<path d="M59.6636 28.1772C50.1312 28.1772 40.7621 25.9465 40.187 25.8071C39.7712 25.7064 39.5147 25.2882 39.6158 24.8699C39.7168 24.4517 40.1365 24.2 40.5562 24.3007C40.7582 24.351 61.0625 29.184 71.9899 24.7112C79.3306 21.706 81.122 14.3171 81.1375 14.2435C81.2347 13.8292 81.6505 13.5658 82.0702 13.6626C82.4899 13.7595 82.7502 14.1738 82.6531 14.5882C82.5754 14.9212 80.6829 22.8252 72.5806 26.144C68.8811 27.6582 64.2529 28.1772 59.6675 28.1772H59.6636Z" fill="#4D7A60"/>
<path d="M216.158 28.1779C211.573 28.1779 206.944 27.6629 203.245 26.1448C195.143 22.826 193.25 14.922 193.172 14.5889C193.075 14.1707 193.34 13.7563 193.759 13.6634C194.175 13.5705 194.595 13.8299 194.688 14.2443C194.704 14.3179 196.499 21.7068 203.836 24.7119C214.763 29.1887 235.063 24.3518 235.265 24.3014C235.681 24.2007 236.101 24.4563 236.206 24.8707C236.307 25.2851 236.05 25.7033 235.635 25.8079C235.06 25.9473 225.69 28.1779 216.158 28.1779Z" fill="#4D7A60"/>
<path d="M137.886 20.067C133.643 19.9934 96.2364 19.1763 80.9644 12.6161C80.572 12.4457 80.3893 11.9926 80.5603 11.5976C80.7313 11.2065 81.1859 11.0244 81.5823 11.1948C96.5822 17.6389 133.705 18.4482 137.89 18.5218C142.048 18.4521 179.171 17.6389 194.171 11.1948C194.564 11.0244 195.022 11.2065 195.193 11.5976C195.364 11.9887 195.181 12.4457 194.789 12.6161C179.517 19.1763 142.107 19.9973 137.894 20.067H137.886Z" fill="#4D7A60"/>
<path d="M137.886 21.3502C133.643 21.2766 96.2364 20.4595 80.9644 13.8993C80.572 13.7289 80.3893 13.2758 80.5603 12.8808C80.7313 12.4897 81.1859 12.3077 81.5823 12.478C96.5783 18.9221 133.705 19.7314 137.89 19.805C142.048 19.7353 179.171 18.9221 194.171 12.478C194.564 12.3077 195.022 12.4897 195.193 12.8808C195.364 13.2719 195.181 13.7289 194.789 13.8993C179.517 20.4595 142.107 21.2805 137.894 21.3502H137.886Z" fill="#336150"/>
<path d="M138.085 0H138.551C139.9 0 140.992 1.09207 140.992 2.43199V11.9934H135.641V2.43199C135.641 1.0882 136.736 0 138.081 0H138.085Z" fill="#BDA296"/>
<path d="M138.318 0C136.841 0 135.645 1.19276 135.645 2.66435V4.99178H140.996V2.66435C140.996 1.19276 139.799 0 138.322 0L138.318 0Z" fill="#204D42"/>
<path d="M121.715 24.5221L138.335 7.95898L154.956 24.5221H121.715Z" fill="#204D42"/>
<path d="M127.418 24.5207L138.338 13.6387L149.257 24.5207H127.418Z" fill="#210B0C"/>
<path d="M131.594 24.5217L138.336 17.7988L145.082 24.5217H131.594Z" fill="#BDA296"/>
<path d="M154.957 25.2957C154.759 25.2957 154.561 25.2183 154.41 25.0673L138.341 9.05404L122.272 25.0673C121.969 25.3693 121.476 25.3693 121.173 25.0673C120.87 24.7652 120.87 24.2734 121.173 23.9713L137.793 7.40819C138.096 7.10612 138.59 7.10612 138.893 7.40819L155.513 23.9713C155.816 24.2734 155.816 24.7652 155.513 25.0673C155.362 25.2183 155.163 25.2957 154.965 25.2957H154.957Z" fill="#4D7A60"/>
<path d="M111.937 49.3555H111.688C110.957 49.3555 110.363 49.9467 110.363 50.676V52.5813C110.363 53.3107 110.957 53.9019 111.688 53.9019H111.937C112.669 53.9019 113.262 53.3107 113.262 52.5813V50.676C113.262 49.9467 112.669 49.3555 111.937 49.3555Z" fill="#FF965C"/>
<path d="M66.9918 49.3555H66.7431C66.0112 49.3555 65.418 49.9467 65.418 50.676V52.5813C65.418 53.3107 66.0112 53.9019 66.7431 53.9019H66.9918C67.7236 53.9019 68.3169 53.3107 68.3169 52.5813V50.676C68.3169 49.9467 67.7236 49.3555 66.9918 49.3555Z" fill="#FF965C"/>
<path d="M157.23 49.3555H156.981C156.25 49.3555 155.656 49.9467 155.656 50.676V52.5813C155.656 53.3107 156.25 53.9019 156.981 53.9019H157.23C157.962 53.9019 158.555 53.3107 158.555 52.5813V50.676C158.555 49.9467 157.962 49.3555 157.23 49.3555Z" fill="#FF965C"/>
<path d="M202.519 49.3555H202.27C201.539 49.3555 200.945 49.9467 200.945 50.676V52.5813C200.945 53.3107 201.539 53.9019 202.27 53.9019H202.519C203.251 53.9019 203.844 53.3107 203.844 52.5813V50.676C203.844 49.9467 203.251 49.3555 202.519 49.3555Z" fill="#FF965C"/>
</g>
<g clip-path="url(#clip2_57_6588)">
<path d="M112.13 113.222C112.014 112.917 111.885 112.606 111.75 112.289C108.394 103.891 100.737 107.77 100.737 107.77C96.9023 103.158 95.8899 108.572 95.8899 108.572C93.6137 101.641 85.1286 106.465 85.1286 106.465C79.0546 97.9299 67.9619 104.985 67.9619 104.985C68.6429 99.0798 62.6426 100.385 62.6426 100.385C61.6609 94.2872 54.9428 97.1031 54.9428 97.1031C47.2675 81.9854 32.8433 100.28 32.8433 100.28C19.5174 98.8623 17.8363 104.202 17.143 107.745C2.10531 107.658 -0.146353 110.996 0.00703059 113.222H112.13Z" fill="#4D7A60"/>
</g>
<defs>
<clipPath id="clip0_57_6588">
<rect width="96.5785" height="23.7354" fill="white" transform="translate(169.422 82.9375)"/>
</clipPath>
<clipPath id="clip1_57_6588">
<rect width="224" height="107" fill="white" transform="translate(26)"/>
</clipPath>
<clipPath id="clip2_57_6588">
<rect width="112.129" height="22.0985" fill="white" transform="translate(0 91.123)"/>
</clipPath>
</defs>
</svg>
